<svg xmlns="http://www.w3.org/2000/svg" xmlns:xlink="http://www.w3.org/1999/xlink" width="48" zoomAndPan="magnify" viewBox="0 0 36 36.000001" height="48" preserveAspectRatio="xMidYMid meet" version="1.0"><defs><clipPath id="e6bb193322"><path d="M 11 12.558594 L 24.859375 12.558594 L 24.859375 15 L 11 15 Z M 11 12.558594 " clip-rule="nonzero"/></clipPath><clipPath id="ceb5ad8785"><path d="M 11 16 L 24.859375 16 L 24.859375 19 L 11 19 Z M 11 16 " clip-rule="nonzero"/></clipPath><clipPath id="0909648cf6"><path d="M 11 20 L 24.859375 20 L 24.859375 22.773438 L 11 22.773438 Z M 11 20 " clip-rule="nonzero"/></clipPath></defs><g clip-path="url(#e6bb193322)"><path fill="#bca55b" d="M 23.617188 14.652344 L 12.039062 14.652344 C 11.46875 14.652344 11.003906 14.191406 11.003906 13.621094 C 10.996094 12.949219 11.632812 12.558594 12.042969 12.589844 C 12.292969 12.589844 23.609375 12.589844 23.632812 12.589844 C 24.988281 12.664062 24.980469 14.601562 23.617188 14.652344 Z M 23.617188 14.652344 " fill-opacity="1" fill-rule="nonzero"/></g><g clip-path="url(#ceb5ad8785)"><path fill="#bca55b" d="M 23.617188 18.5625 L 12.039062 18.5625 C 11.46875 18.5625 11.003906 18.097656 11.003906 17.527344 C 10.996094 16.855469 11.632812 16.46875 12.042969 16.496094 C 12.292969 16.496094 23.609375 16.496094 23.632812 16.496094 C 24.988281 16.570312 24.980469 18.507812 23.617188 18.5625 Z M 23.617188 18.5625 " fill-opacity="1" fill-rule="nonzero"/></g><g clip-path="url(#0909648cf6)"><path fill="#bca55b" d="M 23.617188 22.46875 L 12.039062 22.46875 C 11.46875 22.46875 11.003906 22.007812 11.003906 21.4375 C 10.996094 20.761719 11.632812 20.375 12.042969 20.402344 C 12.292969 20.40625 23.609375 20.402344 23.632812 20.40625 C 24.988281 20.476562 24.980469 22.414062 23.617188 22.46875 Z M 23.617188 22.46875 " fill-opacity="1" fill-rule="nonzero"/></g></svg>